
<mxfile host="app.diagrams.net" modified="2020-09-14T09:45:24.923Z" agent="5.0 (Windows NT 10.0; Win64; x64) AppleWebKit/537.36 (KHTML, like Gecko) Chrome/84.0.4147.135 Safari/537.36" version="13.6.10" etag="lhiYfGxWHJZVsiy2gYR2" type="github"><diagram id="C5RBs43oDa-KdzZeNtuy" name="Page-1">7VvZcuI4FP0aHpPywpZHIEt3TzpDN5lkXgUWoEG2GFmE0F/fV7a8KoCd4HZCqEpVrGtZtnSOro6OTcMeuM83HC3n35mDacMynOeGfdmwLNOybPgnI5sw0u2YYWDGiaMqJYER+YVV0FDRFXGwn6koGKOCLLPBCfM8PBGZGOKcrbPVpoxm77pEM6wFRhNE9egjccRc9cLqJPEvmMzm0Z3N9kV4xkVRZdUTf44ctk6F7KuGPeCMifDIfR5gKgcvGpfHr5tHerto33z74f+P/un/dX/3cBY2dl3mkrgLHHvi1U3/Wkyvvzw0//t3Obz+sTZueuNvZ+oS4wnRlRqvIeY+81SPxSYaRn9NXIo8KPWnzBMjdQYGoY8omXlwPIGnwxwCT5gLAgj01AnBlhCdzAl1btGGrWQffIEmi6jUnzNOfkGziMIpEwJwmgtFJqudqTGSV0LYgCjHPtQZRgNjxqFb5AtVZ8IoRUufjIMHllVcxGfE6zMhmBs1xFaegx1VipEOCoKzRcwdeX1BOBRscjTwc4qMCp4bzFws+AaqqLMx0zbR5FPldUJcs61i8zRp7a6aMGqyzOK249v9hMmFvBkMQnI/O3e/ZsH7ASKZ2yEKwHtI4L4cRj9NQzhIdTUJBeQsQVRTI+odcrFGUxhpkaIkxVOxlZD+Ek2IN7sN6lw2k8hP1VMZYnDtlAZkmBPHwV5AFoEECvkkGbJkxBPBULT68AcDNjDOW40WPNAAymZShj9ZnYsB84BXiAQEwkDWNZaEfYFaO6ftfmptsoiVRTZNpAykZfGz9EQzZ54k493KHUPaODYkd2SUuXCpOqwK75ZVM962hveVi4i8rOc4kKP9E+AHBbzTrRnwpga4hjAlgX5Qo2G+uLbugd8FIGVzEd73kg6XZ6bGCVvnhP0C/hSNMR0ynwjCZPs8rJvjRV1Z2zSaxVDdsfy/CdSWnrVXfDJHvkzcILsWMLzB0RHO58pANevOzW0N1ZFYObKbBVW/cVL9h1P9Zk712+1qVb+ZU/129/2q/s52ph6rbiyYdtqFafZedgBdDcsePL10byzjOywlR4fkQQVhabxr3wFcnAThwUEtqvKr0oOm7hd+hcRvXAEaZIyCZeaeyYDHmWzuyKZ0WgQ1qwK5W3emNnWz7QbLJXeEXeIhLhG/Rwusu8QfHd+qIK1f80cPsCsdY8/pyTcuUBpTJuV2H0JKj5tGWLwmNFq69gjm7PqHnRmOpg6mY7a+SgL9IAAnIqaUlts+g30p3g8ZbDBmuMB2Tj7tTmBfApJjigR5yr542iHOh5K4iTC3jKwwtww720TYSXVV+k1P2YbCUdAaOphXr5t/Q86m2PeZrtdPW8zqt5h2fstXdIvZMfaS+IUdpt0ssMPsvI8dpqn7liNEkcq4n3Btiyfvx9lZmrpNqaH32bca5WEtuoGsbK+h25SfSrFEiL1ryWLmMn3nlZLFzjVkdXLPUrVk0Z3Gbe8pT4KlesHSMroZOhT+EsYydywy2xVLq/WBvoTRjdSR4Bjrb28+i2LpFKbXu1Esujk6IOL4NOdBLfDyONfugVu6XwpJWxzfd2s1A1371y+WbpmCsperuGUMmHMC/MCAF/4ypjrEdUN1AGMijtA5qBtr+5Vi7HBY64amBvKnNxjK49oqKMOqchgs3ft7AIicY1ygq0OxXXsm1u2/v1diuZL2Qk++q7yV8+CEaGFEL2rPt+WsP7YMxrqcuRf7gmb9Vp8a271OX4TlXqtP4SyplLY1muqB3uj6xe9zYsJY2SaKun6t5p6Gtrh+WkNn+TdOuXbYdOrjSoxDSzcOjfPzCPiEroEZl0oEe9LOWFly4RreR5PFLODvgFHG4bzHEgNSud1W8ZwQzS/1m0v1WI3492fFjbqzNzIqIuYfg0s3z4pjFemnjwrWYWZ/9FHuH4dO98wo9EIu8Gir95mS43lUdRVcxMGPNfpurEu56G8khkaAbVwpvk5cHIYpdtbFj5L0W7gCxeQX12H15Hfr9tVv</diagram></mxfile>
<mxfile host="app.diagrams.net" modified="2020-09-14T11:04:44.796Z" agent="5.0 (Windows NT 10.0; Win64; x64) AppleWebKit/537.36 (KHTML, like Gecko) Chrome/85.0.4183.102 Safari/537.36" etag="SG8nRot1hXM_o0Do0ZOV" version="13.6.10" type="github">
  <diagram id="C5RBs43oDa-KdzZeNtuy" name="Page-1">
    <mxGraphModel dx="1038" dy="548" grid="1" gridSize="10" guides="1" tooltips="1" connect="1" arrows="1" fold="1" page="1" pageScale="1" pageWidth="827" pageHeight="1169" math="0" shadow="0">
      <root>
        <mxCell id="WIyWlLk6GJQsqaUBKTNV-0" />
        <mxCell id="WIyWlLk6GJQsqaUBKTNV-1" parent="WIyWlLk6GJQsqaUBKTNV-0" />
        <mxCell id="zkfFHV4jXpPFQw0GAbJ--12" value="" style="endArrow=block;endSize=10;endFill=0;shadow=0;strokeWidth=1;rounded=0;edgeStyle=elbowEdgeStyle;elbow=vertical;entryX=0;entryY=0.5;entryDx=0;entryDy=0;exitX=1;exitY=0.5;exitDx=0;exitDy=0;" parent="WIyWlLk6GJQsqaUBKTNV-1" source="zkfFHV4jXpPFQw0GAbJ--7" target="zkfFHV4jXpPFQw0GAbJ--2" edge="1">
          <mxGeometry width="160" relative="1" as="geometry">
            <mxPoint x="200" y="203" as="sourcePoint" />
            <mxPoint x="200" y="203" as="targetPoint" />
          </mxGeometry>
        </mxCell>
        <mxCell id="zkfFHV4jXpPFQw0GAbJ--0" value="Devices" style="swimlane;fontStyle=2;align=center;verticalAlign=top;childLayout=stackLayout;horizontal=1;startSize=26;horizontalStack=0;resizeParent=1;resizeLast=0;collapsible=1;marginBottom=0;rounded=0;shadow=0;strokeWidth=1;" parent="WIyWlLk6GJQsqaUBKTNV-1" vertex="1">
          <mxGeometry x="280" y="120" width="160" height="160" as="geometry">
            <mxRectangle x="230" y="140" width="160" height="26" as="alternateBounds" />
          </mxGeometry>
        </mxCell>
        <mxCell id="zkfFHV4jXpPFQw0GAbJ--1" value="id (pk)" style="text;align=left;verticalAlign=top;spacingLeft=4;spacingRight=4;overflow=hidden;rotatable=0;points=[[0,0.5],[1,0.5]];portConstraint=eastwest;" parent="zkfFHV4jXpPFQw0GAbJ--0" vertex="1">
          <mxGeometry y="26" width="160" height="26" as="geometry" />
        </mxCell>
        <mxCell id="zkfFHV4jXpPFQw0GAbJ--2" value="client_id (fk &quot;clients_id&quot;)" style="text;align=left;verticalAlign=top;spacingLeft=4;spacingRight=4;overflow=hidden;rotatable=0;points=[[0,0.5],[1,0.5]];portConstraint=eastwest;rounded=0;shadow=0;html=0;" parent="zkfFHV4jXpPFQw0GAbJ--0" vertex="1">
          <mxGeometry y="52" width="160" height="26" as="geometry" />
        </mxCell>
        <mxCell id="zkfFHV4jXpPFQw0GAbJ--3" value="device_name" style="text;align=left;verticalAlign=top;spacingLeft=4;spacingRight=4;overflow=hidden;rotatable=0;points=[[0,0.5],[1,0.5]];portConstraint=eastwest;rounded=0;shadow=0;html=0;" parent="zkfFHV4jXpPFQw0GAbJ--0" vertex="1">
          <mxGeometry y="78" width="160" height="26" as="geometry" />
        </mxCell>
        <mxCell id="zkfFHV4jXpPFQw0GAbJ--5" value="s/n (unique)" style="text;align=left;verticalAlign=top;spacingLeft=4;spacingRight=4;overflow=hidden;rotatable=0;points=[[0,0.5],[1,0.5]];portConstraint=eastwest;" parent="zkfFHV4jXpPFQw0GAbJ--0" vertex="1">
          <mxGeometry y="104" width="160" height="26" as="geometry" />
        </mxCell>
        <mxCell id="5odqf7OcHpEX4Ny96Q6N-5" value="counter" style="text;align=left;verticalAlign=top;spacingLeft=4;spacingRight=4;overflow=hidden;rotatable=0;points=[[0,0.5],[1,0.5]];portConstraint=eastwest;" parent="zkfFHV4jXpPFQw0GAbJ--0" vertex="1">
          <mxGeometry y="130" width="160" height="26" as="geometry" />
        </mxCell>
        <mxCell id="zkfFHV4jXpPFQw0GAbJ--6" value="Clients" style="swimlane;fontStyle=0;align=center;verticalAlign=top;childLayout=stackLayout;horizontal=1;startSize=26;horizontalStack=0;resizeParent=1;resizeLast=0;collapsible=1;marginBottom=0;rounded=0;shadow=0;strokeWidth=1;" parent="WIyWlLk6GJQsqaUBKTNV-1" vertex="1">
          <mxGeometry x="20" y="120" width="160" height="80" as="geometry">
            <mxRectangle x="130" y="380" width="160" height="26" as="alternateBounds" />
          </mxGeometry>
        </mxCell>
        <mxCell id="zkfFHV4jXpPFQw0GAbJ--7" value="id (pk)" style="text;align=left;verticalAlign=top;spacingLeft=4;spacingRight=4;overflow=hidden;rotatable=0;points=[[0,0.5],[1,0.5]];portConstraint=eastwest;" parent="zkfFHV4jXpPFQw0GAbJ--6" vertex="1">
          <mxGeometry y="26" width="160" height="26" as="geometry" />
        </mxCell>
        <mxCell id="zkfFHV4jXpPFQw0GAbJ--8" value="client_name" style="text;align=left;verticalAlign=top;spacingLeft=4;spacingRight=4;overflow=hidden;rotatable=0;points=[[0,0.5],[1,0.5]];portConstraint=eastwest;rounded=0;shadow=0;html=0;" parent="zkfFHV4jXpPFQw0GAbJ--6" vertex="1">
          <mxGeometry y="52" width="160" height="26" as="geometry" />
        </mxCell>
        <mxCell id="5odqf7OcHpEX4Ny96Q6N-9" style="edgeStyle=orthogonalEdgeStyle;rounded=0;orthogonalLoop=1;jettySize=auto;html=1;exitX=1;exitY=0.5;exitDx=0;exitDy=0;" parent="WIyWlLk6GJQsqaUBKTNV-1" source="zkfFHV4jXpPFQw0GAbJ--1" edge="1">
          <mxGeometry relative="1" as="geometry">
            <mxPoint x="530" y="190" as="targetPoint" />
            <Array as="points">
              <mxPoint x="470" y="159" />
              <mxPoint x="470" y="190" />
            </Array>
          </mxGeometry>
        </mxCell>
        <mxCell id="zkfFHV4jXpPFQw0GAbJ--17" value="Work order" style="swimlane;fontStyle=0;align=center;verticalAlign=top;childLayout=stackLayout;horizontal=1;startSize=26;horizontalStack=0;resizeParent=1;resizeLast=0;collapsible=1;marginBottom=0;rounded=0;shadow=0;strokeWidth=1;" parent="WIyWlLk6GJQsqaUBKTNV-1" vertex="1">
          <mxGeometry x="530" y="120" width="160" height="160" as="geometry">
            <mxRectangle x="550" y="140" width="160" height="26" as="alternateBounds" />
          </mxGeometry>
        </mxCell>
        <mxCell id="zkfFHV4jXpPFQw0GAbJ--18" value="id (pk)" style="text;align=left;verticalAlign=top;spacingLeft=4;spacingRight=4;overflow=hidden;rotatable=0;points=[[0,0.5],[1,0.5]];portConstraint=eastwest;" parent="zkfFHV4jXpPFQw0GAbJ--17" vertex="1">
          <mxGeometry y="26" width="160" height="26" as="geometry" />
        </mxCell>
        <mxCell id="zkfFHV4jXpPFQw0GAbJ--19" value="device_id (fk devices_id)" style="text;align=left;verticalAlign=top;spacingLeft=4;spacingRight=4;overflow=hidden;rotatable=0;points=[[0,0.5],[1,0.5]];portConstraint=eastwest;rounded=0;shadow=0;html=0;" parent="zkfFHV4jXpPFQw0GAbJ--17" vertex="1">
          <mxGeometry y="52" width="160" height="26" as="geometry" />
        </mxCell>
        <mxCell id="zkfFHV4jXpPFQw0GAbJ--20" value="job_description" style="text;align=left;verticalAlign=top;spacingLeft=4;spacingRight=4;overflow=hidden;rotatable=0;points=[[0,0.5],[1,0.5]];portConstraint=eastwest;rounded=0;shadow=0;html=0;" parent="zkfFHV4jXpPFQw0GAbJ--17" vertex="1">
          <mxGeometry y="78" width="160" height="26" as="geometry" />
        </mxCell>
        <mxCell id="zkfFHV4jXpPFQw0GAbJ--21" value="status" style="text;align=left;verticalAlign=top;spacingLeft=4;spacingRight=4;overflow=hidden;rotatable=0;points=[[0,0.5],[1,0.5]];portConstraint=eastwest;rounded=0;shadow=0;html=0;" parent="zkfFHV4jXpPFQw0GAbJ--17" vertex="1">
          <mxGeometry y="104" width="160" height="26" as="geometry" />
        </mxCell>
        <mxCell id="zkfFHV4jXpPFQw0GAbJ--22" value="technician_name" style="text;align=left;verticalAlign=top;spacingLeft=4;spacingRight=4;overflow=hidden;rotatable=0;points=[[0,0.5],[1,0.5]];portConstraint=eastwest;rounded=0;shadow=0;html=0;" parent="zkfFHV4jXpPFQw0GAbJ--17" vertex="1">
          <mxGeometry y="130" width="160" height="26" as="geometry" />
        </mxCell>
      </root>
    </mxGraphModel>
  </diagram>
</mxfile>
